<svg width="51" height="51" viewBox="0 0 51 51" fill="none" xmlns="http://www.w3.org/2000/svg">
<mask id="path-1-inside-1_20_31" fill="white">
<path d="M25.125 3C28.9074 3 32.605 4.12139 35.75 6.22266C38.8949 8.32402 41.3464 11.3113 42.7939 14.8057C44.2415 18.3003 44.6207 22.1466 43.8828 25.8564C43.1448 29.5662 41.323 32.9738 38.6484 35.6484L25.125 49.1719L11.6016 35.6484C8.92699 32.9738 7.10515 29.5662 6.36719 25.8564C5.62926 22.1466 6.00852 18.3003 7.45605 14.8057C8.90361 11.3112 11.355 8.32404 14.5 6.22266C17.645 4.12134 21.3426 3.00002 25.125 3Z"/>
</mask>
<path d="M25.125 3C28.9074 3 32.605 4.12139 35.75 6.22266C38.8949 8.32402 41.3464 11.3113 42.7939 14.8057C44.2415 18.3003 44.6207 22.1466 43.8828 25.8564C43.1448 29.5662 41.323 32.9738 38.6484 35.6484L25.125 49.1719L11.6016 35.6484C8.92699 32.9738 7.10515 29.5662 6.36719 25.8564C5.62926 22.1466 6.00852 18.3003 7.45605 14.8057C8.90361 11.3112 11.355 8.32404 14.5 6.22266C17.645 4.12134 21.3426 3.00002 25.125 3Z" fill="#0064FF"/>
<path d="M25.125 3V1H25.125L25.125 3ZM35.75 6.22266L36.8611 4.55972L36.8611 4.55968L35.75 6.22266ZM42.7939 14.8057L44.6417 14.0403L44.6417 14.0402L42.7939 14.8057ZM43.8828 25.8564L45.8444 26.2467L45.8444 26.2466L43.8828 25.8564ZM38.6484 35.6484L40.0627 37.0627L40.0627 37.0626L38.6484 35.6484ZM25.125 49.1719L23.7108 50.5861L25.125 52.0003L26.5392 50.5861L25.125 49.1719ZM11.6016 35.6484L10.1873 37.0626L10.1873 37.0627L11.6016 35.6484ZM6.36719 25.8564L4.40562 26.2466L4.40562 26.2467L6.36719 25.8564ZM7.45605 14.8057L5.60832 14.0402L5.6083 14.0403L7.45605 14.8057ZM14.5 6.22266L13.3889 4.55969L13.3889 4.55972L14.5 6.22266ZM25.125 3V5C28.5119 5 31.8229 6.00415 34.6389 7.88563L35.75 6.22266L36.8611 4.55968C33.3872 2.23863 29.3028 1 25.125 1V3ZM35.75 6.22266L34.6389 7.8856C37.4549 9.76718 39.65 12.4421 40.9462 15.5711L42.7939 14.8057L44.6417 14.0402C43.0428 10.1805 40.335 6.88086 36.8611 4.55972L35.75 6.22266ZM42.7939 14.8057L40.9462 15.571C42.2424 18.7004 42.582 22.1445 41.9212 25.4663L43.8828 25.8564L45.8444 26.2466C46.6595 22.1486 46.2406 17.9002 44.6417 14.0403L42.7939 14.8057ZM43.8828 25.8564L41.9212 25.4662C41.2605 28.7879 39.6292 31.8392 37.2342 34.2342L38.6484 35.6484L40.0627 37.0626C43.0168 34.1084 45.0292 30.3445 45.8444 26.2467L43.8828 25.8564ZM38.6484 35.6484L37.2342 34.2342L23.7108 47.7577L25.125 49.1719L26.5392 50.5861L40.0627 37.0627L38.6484 35.6484ZM25.125 49.1719L26.5392 47.7577L13.0158 34.2342L11.6016 35.6484L10.1873 37.0627L23.7108 50.5861L25.125 49.1719ZM11.6016 35.6484L13.0158 34.2342C10.6208 31.8392 8.98952 28.7879 8.32875 25.4662L6.36719 25.8564L4.40562 26.2467C5.22079 30.3445 7.23316 34.1084 10.1873 37.0626L11.6016 35.6484ZM6.36719 25.8564L8.32876 25.4663C7.66804 22.1445 8.0076 18.7004 9.30381 15.571L7.45605 14.8057L5.6083 14.0403C4.00945 17.9002 3.59049 22.1486 4.40562 26.2466L6.36719 25.8564ZM7.45605 14.8057L9.30379 15.5711C10.6 12.442 12.7951 9.76721 15.6111 7.8856L14.5 6.22266L13.3889 4.55972C9.91499 6.88088 7.20723 10.1804 5.60832 14.0402L7.45605 14.8057ZM14.5 6.22266L15.6111 7.88562C18.4271 6.00411 21.7381 5.00002 25.125 5L25.125 3L25.125 1C20.9472 1.00003 16.8629 2.23857 13.3889 4.55969L14.5 6.22266Z" fill="white" mask="url(#path-1-inside-1_20_31)"/>
<circle cx="25.5" cy="21.5" r="6.5" fill="white"/>
</svg>
