<svg width="28" height="28" viewBox="0 0 28 28" fill="none" xmlns="http://www.w3.org/2000/svg">
<mask id="path-1-inside-1_28_1310" fill="white">
<path d="M14 1C16.1754 1 18.3025 1.63225 20.1113 2.81543C21.9201 3.9987 23.3305 5.68078 24.1631 7.64844C24.9955 9.616 25.2133 11.7814 24.7891 13.8701C24.3646 15.9592 23.3167 17.8786 21.7783 19.3848L14 27L6.22168 19.3848C4.68359 17.8787 3.63629 15.959 3.21191 13.8701C2.7877 11.7813 3.00543 9.61604 3.83789 7.64844C4.6704 5.68082 6.07999 3.99873 7.88867 2.81543C9.69744 1.63218 11.8246 1.00011 14 1Z"/>
</mask>
<path d="M14 1C16.1754 1 18.3025 1.63225 20.1113 2.81543C21.9201 3.9987 23.3305 5.68078 24.1631 7.64844C24.9955 9.616 25.2133 11.7814 24.7891 13.8701C24.3646 15.9592 23.3167 17.8786 21.7783 19.3848L14 27L6.22168 19.3848C4.68359 17.8787 3.63629 15.959 3.21191 13.8701C2.7877 11.7813 3.00543 9.61604 3.83789 7.64844C4.6704 5.68082 6.07999 3.99873 7.88867 2.81543C9.69744 1.63218 11.8246 1.00011 14 1Z" fill="#67A2FF"/>
<path d="M14 1L14 -0.0588235L13.9999 -0.0588235L14 1ZM20.1113 2.81543L20.691 1.92936L20.6909 1.92933L20.1113 2.81543ZM24.1631 7.64844L25.1382 7.23589L25.1382 7.23583L24.1631 7.64844ZM24.7891 13.8701L25.8267 14.0809L25.8267 14.0809L24.7891 13.8701ZM21.7783 19.3848L22.519 20.1414L22.5191 20.1414L21.7783 19.3848ZM14 27L13.2593 27.7566L14 28.4818L14.7407 27.7566L14 27ZM6.22168 19.3848L5.4809 20.1413L5.48095 20.1414L6.22168 19.3848ZM3.21191 13.8701L2.17427 14.0809L2.17429 14.0809L3.21191 13.8701ZM3.83789 7.64844L2.86276 7.23585L2.86275 7.23587L3.83789 7.64844ZM7.88867 2.81543L7.30903 1.92936L7.30899 1.92939L7.88867 2.81543ZM14 1V2.05882C15.9708 2.05882 17.8962 2.63172 19.5317 3.70153L20.1113 2.81543L20.6909 1.92933C18.7088 0.632783 16.3801 -0.0588235 14 -0.0588235V1ZM20.1113 2.81543L19.5317 3.7015C21.1668 4.77117 22.4383 6.28942 23.188 8.06105L24.1631 7.64844L25.1382 7.23583C24.2227 5.07213 22.6734 3.22622 20.691 1.92936L20.1113 2.81543ZM24.1631 7.64844L23.1879 8.06099C23.9373 9.8323 24.133 11.7804 23.7514 13.6594L24.7891 13.8701L25.8267 14.0809C26.2935 11.7823 26.0537 9.3997 25.1382 7.23589L24.1631 7.64844ZM24.7891 13.8701L23.7514 13.6593C23.3696 15.5386 22.4262 17.2686 21.0376 18.6282L21.7783 19.3848L22.5191 20.1414C24.2071 18.4887 25.3597 16.3797 25.8267 14.0809L24.7891 13.8701ZM21.7783 19.3848L21.0376 18.6282L13.2593 26.2434L14 27L14.7407 27.7566L22.519 20.1414L21.7783 19.3848ZM14 27L14.7407 26.2434L6.96241 18.6282L6.22168 19.3848L5.48095 20.1414L13.2593 27.7566L14 27ZM6.22168 19.3848L6.96246 18.6282C5.57421 17.2689 4.63136 15.5387 4.24954 13.6593L3.21191 13.8701L2.17429 14.0809C2.64123 16.3792 3.79296 18.4885 5.4809 20.1413L6.22168 19.3848ZM3.21191 13.8701L4.24955 13.6594C3.86794 11.7803 4.06361 9.83233 4.81303 8.061L3.83789 7.64844L2.86275 7.23587C1.94725 9.39974 1.70746 11.7823 2.17427 14.0809L3.21191 13.8701ZM3.83789 7.64844L4.81302 8.06102C5.56266 6.28927 6.83347 4.77108 8.46835 3.70147L7.88867 2.81543L7.30899 1.92939C5.32652 3.22639 3.77814 5.07237 2.86276 7.23585L3.83789 7.64844ZM7.88867 2.81543L8.46831 3.7015C10.1037 2.63169 12.0292 2.05893 14.0001 2.05882L14 1L13.9999 -0.0588235C11.62 -0.0586997 9.2912 0.632681 7.30903 1.92936L7.88867 2.81543Z" fill="white" mask="url(#path-1-inside-1_28_1310)"/>
<circle cx="14.4412" cy="11.3824" r="3.44118" fill="white"/>
</svg>
